# xmcd CD database file
#
# Track frame offsets:
#	150
#	57437
#	92762
#	155012
#	179987
#	226787
#	260487
#
# Disc length: 4401 seconds
#
# Revision: 0
# Processed by: cddbd v1.5.1PL0 Copyright (c) Steve Scherf et al.
# Submitted via: CDex 1.51
#
DISCID=5e112f07
DTITLE=Anthony Braxton - Open Aspects (Duo) 1982
DYEAR=1982
DGENRE=Jazz
TTITLE0=Open Aspect #3
TTITLE1=Open Aspect #1.2.
TTITLE2=Open Aspect #2
TTITLE3=Open Aspect #4
TTITLE4=Open Aspect #5
TTITLE5=Open Aspect #6
TTITLE6=Open Aspect #1.1.
EXTD=YEAR: 1982
EXTT0=
EXTT1=
EXTT2=
EXTT3=
EXTT4=
EXTT5=
EXTT6=
PLAYORDER=
